<?xml version="1.0" encoding="iso-8859-1"?>
<!-- Generator: Adobe Illustrator 18.0.0, SVG Export Plug-In . SVG Version: 6.00 Build 0)  -->
<!DOCTYPE svg PUBLIC "-//W3C//DTD SVG 1.1//EN" "http://www.w3.org/Graphics/SVG/1.1/DTD/svg11.dtd">
<svg version="1.1" id="Capa_1" xmlns="http://www.w3.org/2000/svg" xmlns:xlink="http://www.w3.org/1999/xlink" x="0px" y="0px"
	 viewBox="0 0 297 297" style="enable-background:new 0 0 297 297;" xml:space="preserve">
<g>
	<path d="M80.548,84.09h135.904c3.021,0,5.47-2.449,5.47-5.47v-10.65c0-3.021-2.449-5.47-5.47-5.47H80.548
		c-3.021,0-5.47,2.449-5.47,5.47v10.65C75.078,81.641,77.527,84.09,80.548,84.09z"/>
	<path d="M125.407,254.05l23.093,7.697l22.936-7.645c14.02-4.673,23.439-17.742,23.439-32.52v-30.558
		c-2.935-2.995-4.719-7.083-4.719-11.504v-20.426c0-0.141-0.021-0.276-0.031-0.415c-2.733,2.463-5.664,4.745-8.781,6.823
		l-9.818,6.546c-6.993,4.662-15.01,6.993-23.026,6.993c-8.016,0-16.032-2.331-23.026-6.993l-9.818-6.546
		c-3.117-2.078-6.047-4.36-8.781-6.823c-0.01,0.139-0.031,0.274-0.031,0.415v20.426c0,4.529-1.879,8.704-4.944,11.717l0.07,30.495
		C102.047,236.406,111.465,249.402,125.407,254.05z"/>
	<path d="M95.362,115.14c3.32,16.602,12.907,30.918,26.995,40.31l9.818,6.546c9.917,6.609,22.732,6.61,32.65,0l9.818-6.546
		c14.088-9.392,23.675-23.708,26.995-40.31l3.794-18.969H91.568L95.362,115.14z"/>
	<path d="M230.49,201.061l-21.52-4.304v24.825c0,20.854-13.293,39.297-33.076,45.891l-25.164,8.388
		c-0.724,0.241-1.476,0.362-2.229,0.362c-0.753,0-1.505-0.121-2.229-0.362l-25.321-8.441c-19.674-6.558-32.967-24.897-33.075-45.637
		l-0.057-24.984l-21.308,4.261v91.963H230.49V201.061z"/>
	<path d="M221.922,50.418c-0.275-11.042-9.324-19.946-20.43-19.946c-0.734,0-1.502,0.044-2.282,0.131
		c-2.584,0.296-5.053-1.104-6.148-3.458c-6.44-13.858-24.348-23.169-44.562-23.169s-38.122,9.311-44.562,23.169
		c-1.093,2.354-3.564,3.754-6.148,3.458c-0.78-0.087-1.548-0.131-2.282-0.131c-11.107,0-20.156,8.904-20.43,19.946H221.922z"/>
	<path d="M296.82,285.518l-7.379-29.515c-5.84-23.361-22.851-42.305-44.857-50.952v87.973h46.375c1.86,0,3.616-0.857,4.761-2.323
		C296.865,289.235,297.27,287.322,296.82,285.518z"/>
	<path d="M52.415,205.051c-22.006,8.648-39.017,27.591-44.857,50.952L0.18,285.518c-0.45,1.804-0.045,3.716,1.099,5.182
		c1.145,1.466,2.901,2.323,4.761,2.323h46.375V205.051z"/>
</g>
<g>
</g>
<g>
</g>
<g>
</g>
<g>
</g>
<g>
</g>
<g>
</g>
<g>
</g>
<g>
</g>
<g>
</g>
<g>
</g>
<g>
</g>
<g>
</g>
<g>
</g>
<g>
</g>
<g>
</g>
</svg>
